<svg width="32" height="32" viewBox="0 0 32 32" fill="none" xmlns="http://www.w3.org/2000/svg">
<path d="M26.964 0C28.839 0 30.349 1.516 30.438 3.302V32L26.87 28.969L24.912 27.188L22.771 25.323L23.662 28.261H4.94799C3.07799 28.261 1.56299 26.844 1.56299 24.959V3.308C1.56299 1.522 3.07899 0.006 4.95399 0.006H26.954L26.964 0ZM18.807 7.578H18.765L18.494 7.844C21.26 8.646 22.598 9.896 22.598 9.896C20.817 9.005 19.207 8.557 17.603 8.375C16.447 8.198 15.285 8.292 14.306 8.375H14.035C13.41 8.375 12.077 8.646 10.29 9.359C9.66999 9.63 9.31099 9.807 9.31099 9.807C9.31099 9.807 10.644 8.468 13.592 7.755L13.41 7.578C13.41 7.578 11.181 7.489 8.77499 9.271C8.77499 9.271 6.36899 13.464 6.36899 18.63C6.36899 18.63 7.70199 20.948 11.359 21.036C11.359 21.036 11.895 20.328 12.432 19.703C10.38 19.078 9.57799 17.828 9.57799 17.828C9.57799 17.828 9.75999 17.917 10.026 18.094H10.104C10.146 18.094 10.167 18.115 10.187 18.136V18.146C10.208 18.167 10.229 18.182 10.265 18.182C10.708 18.364 11.145 18.541 11.505 18.718C12.13 18.984 12.927 19.254 13.906 19.432C15.146 19.614 16.567 19.698 18.187 19.432C18.984 19.25 19.786 19.078 20.588 18.718C21.104 18.452 21.744 18.187 22.447 17.734C22.447 17.734 21.65 18.984 19.509 19.609C19.947 20.229 20.566 20.942 20.566 20.942C24.227 20.859 25.649 18.541 25.727 18.64C25.727 13.479 23.305 9.281 23.305 9.281C21.128 7.661 19.086 7.599 18.727 7.599L18.8 7.573L18.807 7.578ZM19.031 13.464C19.969 13.464 20.724 14.261 20.724 15.24C20.724 16.23 19.964 17.026 19.031 17.026C18.093 17.026 17.338 16.229 17.338 15.25C17.338 14.26 18.098 13.464 19.031 13.464ZM12.974 13.464C13.906 13.464 14.662 14.261 14.662 15.24C14.662 16.23 13.902 17.026 12.969 17.026C12.031 17.026 11.271 16.229 11.271 15.25C11.271 14.26 12.031 13.464 12.969 13.464H12.974Z" fill="black"/>
</svg>
