<svg width="1282" height="963" viewBox="0 0 1282 963" fill="none" xmlns="http://www.w3.org/2000/svg">
<mask id="mask0" mask-type="alpha" maskUnits="userSpaceOnUse" x="0" y="0" width="1282" height="963">
<rect width="1282" height="963" fill="#C4C4C4"/>
</mask>
<g mask="url(#mask0)">
<path d="M206.544 22.2665C-39.192 -52.5098 -327.21 53.4232 -440.501 115.737L-470 926.976C-402.88 888.611 -212.464 813.416 12.2382 819.555C293.116 827.227 348.907 1042.07 741.367 848.154C1055.33 693.021 1299.28 807.231 1382 883.728V22.2665C1280.04 -71.2038 1081.24 97.6009 836.917 198.047C592.591 298.492 513.715 115.737 206.544 22.2665Z" fill="#DEB300" fill-opacity="0.38"/>
<path d="M240.558 56.2665C-13.5371 -18.5098 -311.352 87.4232 -428.498 149.737L-459 960.976C-389.597 922.611 -192.704 847.416 39.6426 853.555C330.075 861.227 387.764 1076.07 793.574 882.154C1118.22 727.021 1370.46 841.231 1456 917.728V56.2665C1350.57 -37.2038 1145.01 131.601 892.375 232.047C639.738 332.492 558.178 149.737 240.558 56.2665Z" fill="#DEB300" fill-opacity="0.37"/>
<path d="M418.5 198.545C226.9 144.945 2.33334 220.878 -86 265.545L-109 847.045C-56.6667 819.545 91.8 765.645 267 770.045C486 775.545 529.5 929.545 835.5 790.545C1080.3 679.345 1270.5 761.212 1335 816.045V198.545C1255.5 131.545 1100.5 252.545 910 324.545C719.5 396.545 658 265.545 418.5 198.545Z" fill="#DEB300"/>
</g>
</svg>
