<svg width="32" height="32" viewBox="0 0 32 32" fill="none" xmlns="http://www.w3.org/2000/svg">
<path d="M4.46918 8.894C4.48711 8.71101 4.462 8.52637 4.39584 8.35482C4.32969 8.18327 4.22433 8.02957 4.08818 7.906L1.26918 4.506V4H10.0312L16.8062 18.856L22.7622 4H31.1182V4.506L28.7062 6.819C28.6042 6.89641 28.5253 7.00017 28.4779 7.11911C28.4305 7.23805 28.4164 7.36766 28.4372 7.494V24.494C28.4164 24.6203 28.4305 24.7499 28.4779 24.8689C28.5253 24.9878 28.6042 25.0916 28.7062 25.169L31.0622 27.482V27.988H19.2062V27.482L21.6502 25.113C21.8882 24.875 21.8882 24.8 21.8882 24.438V10.7L15.0942 27.944H14.1752L6.27518 10.7V22.256C6.20618 22.743 6.36918 23.231 6.71318 23.581L9.88818 27.431V27.937H0.888184V27.437L4.06318 23.581C4.40018 23.231 4.55718 22.737 4.46918 22.256V8.894Z" fill="black"/>
</svg>
