<svg width="32" height="32" viewBox="0 0 32 32" fill="none" xmlns="http://www.w3.org/2000/svg">
<path d="M31.5239 6.58244C30.4106 7.07578 29.2146 7.40911 27.9573 7.55978C29.2546 6.7835 30.2252 5.56173 30.6879 4.12244C29.4691 4.84643 28.1351 5.35604 26.7439 5.62911C25.8084 4.63026 24.5693 3.96821 23.219 3.74574C21.8687 3.52327 20.4827 3.75283 19.2763 4.39878C18.0698 5.04473 17.1103 6.07093 16.5468 7.31805C15.9833 8.56517 15.8473 9.96344 16.1599 11.2958C13.6902 11.1718 11.2741 10.5298 9.0685 9.41165C6.8629 8.29346 4.91706 6.72399 3.35727 4.80511C2.82393 5.72511 2.51727 6.79178 2.51727 7.92778C2.51667 8.95044 2.76851 9.95743 3.25044 10.8594C3.73237 11.7614 4.42948 12.5305 5.27993 13.0984C4.29364 13.0671 3.3291 12.8006 2.4666 12.3211V12.4011C2.4665 13.8354 2.96264 15.2256 3.87084 16.3358C4.77905 17.4459 6.04336 18.2077 7.44927 18.4918C6.53431 18.7394 5.57505 18.7759 4.64393 18.5984C5.0406 19.8326 5.81326 20.9118 6.85376 21.685C7.89425 22.4582 9.15049 22.8867 10.4466 22.9104C8.24638 24.6377 5.52912 25.5746 2.73193 25.5704C2.23644 25.5706 1.74137 25.5416 1.24927 25.4838C4.08857 27.3093 7.39372 28.2782 10.7693 28.2744C22.1959 28.2744 28.4426 18.8104 28.4426 10.6024C28.4426 10.3358 28.4359 10.0664 28.4239 9.79978C29.639 8.92108 30.6878 7.83297 31.5213 6.58644L31.5239 6.58244Z" fill="black"/>
</svg>
